<?xml version="1.0" standalone="no"?>
<!DOCTYPE svg PUBLIC "-//W3C//DTD SVG 20010904//EN"
 "http://www.w3.org/TR/2001/REC-SVG-20010904/DTD/svg10.dtd">
<svg version="1.0" xmlns="http://www.w3.org/2000/svg"
 width="256.000000pt" height="256.000000pt" viewBox="0 0 256.000000 256.000000"
 preserveAspectRatio="xMidYMid meet">
<metadata>
Created by potrace 1.14, written by Peter Selinger 2001-2017
</metadata>
<g transform="translate(0.000000,256.000000) scale(0.100000,-0.100000)"
fill="#000000" stroke="none">
<path d="M1140 2553 c-194 -21 -407 -100 -580 -216 -96 -64 -273 -241 -337
-337 -261 -391 -294 -879 -85 -1295 352 -705 1270 -923 1904 -453 498 369 659
1048 380 1603 -60 120 -131 216 -241 326 -157 157 -300 246 -504 314 -160 53
-371 76 -537 58z m-50 -735 c40 -43 11 -108 -48 -108 -59 0 -87 76 -42 112 30
24 65 23 90 -4z m468 6 c46 -32 18 -114 -40 -114 -60 0 -89 70 -46 110 26 24
56 26 86 4z m-810 -80 c27 -18 30 -69 5 -96 -23 -26 -78 -24 -97 4 -22 31 -20
64 6 88 26 24 56 26 86 4z m1161 -26 c30 -53 -19 -112 -77 -92 -57 20 -60 103
-4 122 35 12 63 1 81 -30z m-733 -243 l102 -199 101 202 c82 163 105 202 121
202 12 0 23 -6 26 -14 3 -8 9 -105 12 -216 l7 -201 118 175 c99 149 121 176
142 176 19 0 25 -5 25 -22 0 -24 -216 -606 -232 -625 -15 -19 -631 -19 -645 0
-21 26 -235 617 -229 632 3 8 16 15 29 15 19 0 45 -33 145 -182 l122 -183 0
211 c0 215 4 238 40 232 8 -2 59 -91 116 -203z m444 -634 c14 -27 13 -84 -2
-104 -12 -16 -42 -17 -348 -15 l-335 3 -3 59 c-2 41 1 62 10 67 7 5 160 9 340
9 313 0 328 -1 338 -19z"/>
</g>
</svg>
