<svg width="84" height="84" viewBox="0 0 84 84" fill="none" xmlns="http://www.w3.org/2000/svg">
<g clip-path="url(#clip0_170_1489)">
<path d="M42 84C65.196 84 84 65.196 84 42C84 18.804 65.196 0 42 0C18.804 0 0 18.804 0 42C0 65.196 18.804 84 42 84Z" fill="#90DFAA"/>
<path d="M6.87891 65.084C14.4191 76.4604 27.3167 84.0005 42.0002 84.0005C56.6836 84.0005 69.5813 76.4604 77.1214 65.084H6.87891Z" fill="#2C9984"/>
<path d="M72.3592 62.7021H11.6411V65.0171H72.3592V62.7021Z" fill="#324A5E"/>
<path d="M31.6156 44.9758C33.5152 44.9758 35.055 42.3107 35.055 39.0231C35.055 35.7355 33.5152 33.0703 31.6156 33.0703C29.7161 33.0703 28.1763 35.7355 28.1763 39.0231C28.1763 42.3107 29.7161 44.9758 31.6156 44.9758Z" fill="#F9B54C"/>
<path d="M43.8521 58.9321C44.4473 56.6171 44.778 54.236 44.778 51.9872C44.778 42.5951 38.8914 39.751 31.6158 39.751C24.3402 39.751 18.4536 42.5951 18.4536 51.9872C18.4536 54.1699 18.7843 56.551 19.3796 58.9321H43.8521Z" fill="#FF7058"/>
<path d="M34.989 38.6934C34.989 38.6934 33.0047 39.9501 31.6157 39.9501L33.4677 43.9186L36.1134 40.2146L34.989 38.6934Z" fill="#E6E9EE"/>
<path d="M28.1762 38.6934C28.1762 38.6934 30.1604 39.9501 31.5494 39.9501L29.6974 43.9186L27.0518 40.2146L28.1762 38.6934Z" fill="#E6E9EE"/>
<path d="M41.2065 22.0256C41.2065 27.5815 36.9073 35.3862 31.6159 35.3862C26.3246 35.3862 22.0254 27.5815 22.0254 22.0256C22.0254 16.4697 26.3246 14.0225 31.6159 14.0225C36.9073 14.0225 41.2065 16.4697 41.2065 22.0256Z" fill="#324A5E"/>
<path d="M38.7593 27.5812C38.7593 33.2694 35.5845 37.8332 31.616 37.8332C27.7136 37.8332 24.4727 33.2694 24.4727 27.5812C24.4727 24.208 25.5971 21.2316 27.3829 19.3135C28.6396 20.5702 30.1608 21.7607 31.8805 22.8851C34.1955 24.3402 36.5105 25.3324 38.627 25.8615C38.6931 26.3906 38.7593 26.9859 38.7593 27.5812Z" fill="#FFD05B"/>
<path d="M63.2316 56.4848C63.6285 55.0297 63.8269 53.5084 63.8269 52.1194C63.8269 46.1667 60.0568 44.3809 55.493 44.3809C50.8631 44.3809 47.1592 46.1667 47.1592 52.1194C47.1592 53.5084 47.3576 55.0297 47.7545 56.4848H63.2316Z" fill="#E6E9EE"/>
<path d="M58.1385 44.6452C58.1385 46.1003 56.9479 47.357 55.4267 47.357C53.9715 47.357 52.7148 46.1665 52.7148 44.6452C52.7148 43.1901 53.9054 38.957 55.4267 38.957C56.8818 38.957 58.1385 43.1901 58.1385 44.6452Z" fill="#F9B54C"/>
<path d="M55.6251 42.9923C59.4606 42.9923 62.5699 39.883 62.5699 36.0474C62.5699 32.2119 59.4606 29.1025 55.6251 29.1025C51.7895 29.1025 48.6802 32.2119 48.6802 36.0474C48.6802 39.883 51.7895 42.9923 55.6251 42.9923Z" fill="#324A5E"/>
<path d="M55.6252 44.1169C58.7667 44.1169 61.3134 41.8072 61.3134 38.9579C61.3134 36.1086 58.7667 33.7988 55.6252 33.7988C52.4837 33.7988 49.937 36.1086 49.937 38.9579C49.937 41.8072 52.4837 44.1169 55.6252 44.1169Z" fill="#FFD05B"/>
<path d="M60.255 37.0387C58.4691 36.0465 58.7337 34.0623 58.7337 34.0623C58.7337 34.0623 56.6833 32.4087 55.625 33.467C54.5006 32.4749 52.5164 34.0623 52.5164 34.0623C52.5164 34.0623 52.7809 36.0465 50.9951 37.0387C50.9951 37.0387 53.9715 36.245 53.9054 34.0623C53.9054 34.0623 54.5668 36.708 53.2439 37.3032C53.2439 37.3032 54.7652 37.0387 55.625 36.1788C56.4849 37.0387 58.0061 37.3032 58.0061 37.3032C56.7494 36.708 57.3447 34.0623 57.3447 34.0623C57.2124 36.3111 60.255 37.0387 60.255 37.0387Z" fill="#324A5E"/>
<path d="M65.5465 29.0361C64.6205 28.8377 63.6945 28.9038 62.7024 29.1684C61.7764 29.4991 60.9166 30.0282 60.3213 30.6896C60.3213 29.0361 60.9827 27.7133 62.1071 27.3826C63.2315 26.9857 64.5543 27.7133 65.5465 29.0361Z" fill="#324A5E"/>
<path d="M60.9827 29.8296C61.2472 30.028 61.115 30.5571 60.7181 30.8878C60.3213 31.2847 59.8583 31.3508 59.5937 31.1524C59.3291 30.954 59.4614 30.4248 59.8583 30.0941C60.2551 29.7634 60.7843 29.6311 60.9827 29.8296Z" fill="#E6E9EE"/>
<path d="M45.3071 29.0361C46.2331 28.8377 47.1591 28.9038 48.1512 29.1684C49.0772 29.4991 49.9371 30.0282 50.5323 30.6896C50.5323 29.0361 49.8709 27.7133 48.7465 27.3826C47.6221 26.9857 46.2993 27.7133 45.3071 29.0361Z" fill="#324A5E"/>
<path d="M49.871 29.8296C49.6065 30.028 49.7388 30.5571 50.1356 30.8878C50.5325 31.2847 50.9954 31.3508 51.26 31.1524C51.5246 30.954 51.3923 30.4248 50.9954 30.0941C50.5986 29.7634 50.0695 29.6311 49.871 29.8296Z" fill="#E6E9EE"/>
<path d="M61.6677 38.5128C61.9787 37.9752 61.8975 37.3467 61.4865 37.109C61.0754 36.8712 60.4901 37.1142 60.1792 37.6517C59.8683 38.1892 59.9494 38.8178 60.3605 39.0555C60.7715 39.2933 61.3568 39.0503 61.6677 38.5128Z" fill="#FFD05B"/>
<path d="M49.4782 38.555C49.7892 39.0926 50.3745 39.3356 50.7855 39.0978C51.1966 38.86 51.2777 38.2315 50.9668 37.694C50.6559 37.1565 50.0706 36.9135 49.6595 37.1512C49.2485 37.389 49.1673 38.0175 49.4782 38.555Z" fill="#FFD05B"/>
<path d="M64.1575 55.0957H45.4394C43.5212 55.0957 42 56.617 42 58.5351C42 56.617 40.4787 55.0957 38.5606 55.0957H19.8425L15.0142 62.702H68.9858L64.1575 55.0957Z" fill="white"/>
</g>
<defs>
<clipPath id="clip0_170_1489">
<rect width="84" height="84" fill="white"/>
</clipPath>
</defs>
</svg>
