<svg width="84" height="84" viewBox="0 0 84 84" fill="none" xmlns="http://www.w3.org/2000/svg">
<path d="M42 84C65.196 84 84 65.196 84 42C84 18.804 65.196 0 42 0C18.804 0 0 18.804 0 42C0 65.196 18.804 84 42 84Z" fill="#84DBFF"/>
<path d="M41.9999 9.5498C41.0499 9.5498 40.2666 10.3331 40.2666 11.2831V68.1831C40.2666 69.1331 41.0499 69.9165 41.9999 69.9165C42.9499 69.9165 43.7333 69.1331 43.7333 68.1831V11.2831C43.7333 10.3331 42.9499 9.5498 41.9999 9.5498Z" fill="#2B3B4E"/>
<path d="M66.6501 34.8833C66.1501 22.8666 55.3001 13.2666 42.0001 13.2666C28.7001 13.2666 17.8501 22.8666 17.3501 34.8833H66.6501Z" fill="#324A5E"/>
<path d="M57.1334 34.8833C56.8334 22.8666 50.1667 13.2666 42 13.2666C33.8334 13.2666 27.1667 22.8666 26.8667 34.8833H57.1334Z" fill="white"/>
<path d="M47.6166 34.8833C47.5 22.8666 45.0333 13.2666 42 13.2666C38.9666 13.2666 36.5 22.8666 36.3833 34.8833H47.6166Z" fill="#FF7058"/>
<path d="M22.1002 40.8995C19.4668 40.8995 17.3335 38.7661 17.3335 36.1328V34.8828H26.8502V36.1328C26.8668 38.7661 24.7335 40.8995 22.1002 40.8995Z" fill="#2B3B4E"/>
<path d="M61.9 40.8995C59.2666 40.8995 57.1333 38.7661 57.1333 36.1328V34.8828H66.65V36.1328C66.65 38.7661 64.5333 40.8995 61.9 40.8995Z" fill="#2B3B4E"/>
<path d="M31.6168 40.9004C28.9834 40.9004 26.8501 38.7671 26.8501 36.1338V34.8838H36.3668V36.1338C36.3834 38.7671 34.2501 40.9004 31.6168 40.9004Z" fill="#E6E9EE"/>
<path d="M55.9168 40.9004H48.8168C48.1501 40.9004 47.6001 40.3671 47.6001 39.6838V34.8838H57.1168V39.6838C57.1335 40.3671 56.5835 40.9004 55.9168 40.9004Z" fill="#E6E9EE"/>
<path d="M42 40.9004C38.9 40.9004 36.3833 38.3838 36.3833 35.2838V34.8838H47.6166V35.2838C47.6166 38.3838 45.1 40.9004 42 40.9004Z" fill="#F1543F"/>
<path d="M56.3164 70.5168C53.1831 65.9668 47.9331 62.9668 41.9998 62.9668C36.0664 62.9668 30.7998 65.9501 27.6831 70.5168H56.3164Z" fill="#FFD05B"/>
</svg>
