<svg width="84" height="84" viewBox="0 0 84 84" fill="none" xmlns="http://www.w3.org/2000/svg">
<path d="M42 84C65.196 84 84 65.196 84 42C84 18.804 65.196 0 42 0C18.804 0 0 18.804 0 42C0 65.196 18.804 84 42 84Z" fill="#F2CF61"/>
<path d="M68.25 57.0938C68.25 58.5375 67.0687 59.7188 65.625 59.7188H18.375C16.9312 59.7188 15.75 58.5375 15.75 57.0938V32.1562C15.75 30.7125 16.9312 29.5312 18.375 29.5312H65.625C67.0687 29.5312 68.25 30.7125 68.25 32.1562V57.0938Z" fill="#F5F5F5"/>
<path d="M18.375 58.4062C17.6512 58.4062 17.0625 57.8183 17.0625 57.0938V32.1562C17.0625 31.4324 17.6512 30.8438 18.375 30.8438H65.625C66.3495 30.8438 66.9375 31.4324 66.9375 32.1562V57.0938C66.9375 57.8183 66.3495 58.4062 65.625 58.4062H18.375Z" fill="#E6E6E6"/>
<path d="M65.625 30.8438H64.9688C65.6933 30.8438 66.2812 31.4324 66.2812 32.1562V57.0938C66.2812 57.8183 65.6933 58.4062 64.9688 58.4062H65.625C66.3495 58.4062 66.9375 57.8183 66.9375 57.0938V32.1562C66.9375 31.4324 66.3495 30.8438 65.625 30.8438Z" fill="white"/>
<path d="M18.375 57.0938V32.1562C18.375 31.4324 18.9637 30.8438 19.6875 30.8438H18.375C17.6512 30.8438 17.0625 31.4324 17.0625 32.1562V57.0938C17.0625 57.8183 17.6512 58.4062 18.375 58.4062H19.6875C18.9637 58.4062 18.375 57.8183 18.375 57.0938Z" fill="#CCCCCC"/>
<path d="M29.5312 53.8125C24.1034 53.8125 19.6875 49.3966 19.6875 43.9688C19.6875 38.5409 24.1034 34.125 29.5312 34.125C34.9591 34.125 39.375 38.5409 39.375 43.9688C39.375 49.3966 34.9591 53.8125 29.5312 53.8125Z" fill="#263740"/>
<path d="M38.0625 43.9688C38.0625 48.6819 34.2444 52.5 29.5306 52.5C24.822 52.5 21 48.6819 21 43.9688C21 39.2582 24.822 35.4375 29.5306 35.4375C34.2444 35.4375 38.0625 39.2582 38.0625 43.9688Z" fill="#F5F5F5"/>
<path d="M29.5313 44.6249C29.3626 44.6249 29.1939 44.5605 29.066 44.4319C28.81 44.1747 28.8107 43.7599 29.0679 43.504L32.3623 40.2227C32.6189 39.9668 33.0343 39.9674 33.2903 40.2247C33.5462 40.4813 33.5455 40.8967 33.2883 41.1526L29.9939 44.4339C29.8666 44.5605 29.6986 44.6249 29.5313 44.6249Z" fill="#CC584C"/>
<path d="M53.8125 53.8125C59.2403 53.8125 63.6562 49.3966 63.6562 43.9688C63.6562 38.5409 59.2403 34.125 53.8125 34.125C48.3847 34.125 43.9688 38.5409 43.9688 43.9688C43.9688 49.3966 48.3847 53.8125 53.8125 53.8125Z" fill="#263740"/>
<path d="M45.2812 43.9688C45.2812 48.6819 49.0993 52.5 53.8132 52.5C58.5217 52.5 62.3438 48.6819 62.3438 43.9688C62.3438 39.2582 58.5217 35.4375 53.8132 35.4375C49.0993 35.4375 45.2812 39.2582 45.2812 43.9688Z" fill="#F5F5F5"/>
<path d="M53.8124 44.6249C53.981 44.6249 54.1497 44.5605 54.2777 44.4319C54.5343 44.1747 54.533 43.7599 54.2757 43.504L50.9807 40.2227C50.7241 39.9668 50.3093 39.9674 50.0527 40.2247C49.7968 40.4813 49.7974 40.8967 50.0553 41.1526L53.3497 44.4339C53.4764 44.5605 53.645 44.6249 53.8124 44.6249Z" fill="#CC584C"/>
<path d="M27.5625 59.7188H22.3125H21V61.0312C21 61.7531 21.5906 62.3438 22.3125 62.3438H27.5625C28.2844 62.3438 28.875 61.7531 28.875 61.0312V59.7188H27.5625Z" fill="#242424"/>
<path d="M60.375 59.7188H55.125H53.8125V61.0312C53.8125 61.7531 54.4031 62.3438 55.125 62.3438H60.375C61.0969 62.3438 61.6875 61.7531 61.6875 61.0312V59.7188H60.375Z" fill="#242424"/>
<path d="M30.8438 28.2188H26.9062V29.5312H30.8438V28.2188Z" fill="#263740"/>
<path d="M30.8438 28.2188H26.9062V28.875H30.8438V28.2188Z" fill="#1E2C33"/>
<path d="M32.1562 27.5625C32.1562 27.9234 31.8609 28.2188 31.5 28.2188H26.25C25.8891 28.2188 25.5938 27.9234 25.5938 27.5625C25.5938 27.2016 25.8891 26.9062 26.25 26.9062H31.5C31.8609 26.9062 32.1562 27.2016 32.1562 27.5625Z" fill="#263740"/>
<path d="M27.5625 26.9062C27.5625 26.1817 28.1505 25.5938 28.875 25.5938C29.5995 25.5938 30.1875 26.1817 30.1875 26.9062H27.5625Z" fill="#CC584C"/>
<path d="M57.0938 28.2188H53.1562V29.5312H57.0938V28.2188Z" fill="#263740"/>
<path d="M57.0938 28.2188H53.1562V28.875H57.0938V28.2188Z" fill="#1E2C33"/>
<path d="M58.4062 27.5625C58.4062 27.9234 58.1109 28.2188 57.75 28.2188H52.5C52.1391 28.2188 51.8438 27.9234 51.8438 27.5625C51.8438 27.2016 52.1391 26.9062 52.5 26.9062H57.75C58.1109 26.9062 58.4062 27.2016 58.4062 27.5625Z" fill="#263740"/>
<path d="M53.8125 26.9062C53.8125 26.1817 54.4005 25.5938 55.125 25.5938C55.8495 25.5938 56.4375 26.1817 56.4375 26.9062H53.8125Z" fill="#CC584C"/>
<path d="M5.25586 62.3438C12.4201 75.2561 26.1863 84 41.9999 84C57.8142 84 71.5797 75.2561 78.744 62.3438H5.25586Z" fill="#263740"/>
<path d="M7.27448 65.625H76.7254C77.4479 64.5658 78.1199 63.4699 78.744 62.3438H5.25586C5.87995 63.4699 6.55195 64.5658 7.27448 65.625Z" fill="#354D59"/>
</svg>
