<svg width="84" height="84" viewBox="0 0 84 84" fill="none" xmlns="http://www.w3.org/2000/svg">
<path d="M42 84C65.196 84 84 65.196 84 42C84 18.804 65.196 0 42 0C18.804 0 0 18.804 0 42C0 65.196 18.804 84 42 84Z" fill="#C2D5D8"/>
<path d="M23.7563 36.0938C22.7063 36.0938 21.6563 36.0938 21.6563 36.0938C21.6563 36.0938 20.6063 36.0938 19.5563 36.0938C19.5563 39.375 19.5563 47.9062 15.3569 55.7812C18.5076 55.7812 21.6576 55.7812 21.6576 55.7812C21.6576 55.7812 24.8076 55.7812 27.9582 55.7812C23.7563 47.9062 23.7563 39.375 23.7563 36.0938Z" fill="#E6E6E6"/>
<path d="M23.7564 36.0938C23.2498 36.0938 22.7451 36.0938 22.356 36.0938C22.356 39.375 22.356 47.9062 26.5553 55.7812C27.0153 55.7812 27.4845 55.7812 27.9557 55.7812C23.7564 47.9062 23.7564 39.375 23.7564 36.0938Z" fill="#CCCCCC"/>
<path d="M26.5563 33.119C26.5563 35.826 24.3644 38.0185 21.6561 38.0185C18.9504 38.0185 16.7559 35.826 16.7559 33.119C16.7559 30.4119 18.9504 28.2188 21.6561 28.2188C24.3644 28.2188 26.5563 30.4113 26.5563 33.119Z" fill="#E6E6E6"/>
<path d="M21.6561 28.2188C21.4179 28.2188 21.1856 28.2417 20.9565 28.2739C23.3315 28.6145 25.1559 30.6495 25.1559 33.1183C25.1559 35.5871 23.3315 37.6222 20.9565 37.9628C21.1869 37.9956 21.4179 38.0179 21.6561 38.0179C24.3644 38.0179 26.5563 35.8253 26.5563 33.1183C26.5563 30.4113 24.3644 28.2188 21.6561 28.2188Z" fill="#CCCCCC"/>
<path d="M24.9375 37.4062C24.9375 37.7685 24.6442 38.0625 24.2812 38.0625H19.0312C18.6683 38.0625 18.375 37.7685 18.375 37.4062C18.375 37.044 18.6683 36.75 19.0312 36.75H24.2812C24.6442 36.75 24.9375 37.044 24.9375 37.4062Z" fill="#CC584C"/>
<path d="M25.5938 38.7188C25.5938 39.081 25.3004 39.375 24.9375 39.375H18.375C18.0121 39.375 17.7188 39.081 17.7188 38.7188C17.7188 38.3565 18.0121 38.0625 18.375 38.0625H24.9375C25.3004 38.0625 25.5938 38.3565 25.5938 38.7188Z" fill="#263740"/>
<path d="M24.9375 38.0625H23.625C23.9879 38.0625 24.2812 38.3565 24.2812 38.7188C24.2812 39.081 23.9879 39.375 23.625 39.375H24.9375C25.3004 39.375 25.5938 39.081 25.5938 38.7188C25.5938 38.3565 25.3004 38.0625 24.9375 38.0625Z" fill="#1E2C33"/>
<path d="M28.875 56.4375C28.875 56.7997 28.5817 57.0938 28.2188 57.0938H15.0938C14.7308 57.0938 14.4375 56.7997 14.4375 56.4375C14.4375 56.0752 14.7308 55.7812 15.0938 55.7812H28.2188C28.5817 55.7812 28.875 56.0752 28.875 56.4375Z" fill="#263740"/>
<path d="M28.306 55.7812H26.9062C27.2908 55.7812 27.6058 56.0523 27.6058 56.4375C27.6058 56.8227 27.2908 57.0938 26.9062 57.0938H28.306C28.6919 57.0938 29.0063 56.8227 29.0063 56.4375C29.0063 56.0523 28.6919 55.7812 28.306 55.7812Z" fill="#1E2C33"/>
<path d="M28.875 57.75C28.875 58.1122 28.5817 58.4062 28.2188 58.4062H15.0938C14.7308 58.4062 14.4375 58.1122 14.4375 57.75C14.4375 57.3877 14.7308 57.0938 15.0938 57.0938H28.2188C28.5817 57.0938 28.875 57.3877 28.875 57.75Z" fill="#CC584C"/>
<path d="M30.1875 59.0625C30.1875 59.4247 29.8942 59.7188 29.5312 59.7188H13.7812C13.4183 59.7188 13.125 59.4247 13.125 59.0625C13.125 58.7002 13.4183 58.4062 13.7812 58.4062H29.5312C29.8942 58.4062 30.1875 58.7002 30.1875 59.0625Z" fill="#263740"/>
<path d="M29.5312 58.4062H28.2188C28.5817 58.4062 28.875 58.7002 28.875 59.0625C28.875 59.4247 28.5817 59.7188 28.2188 59.7188H29.5312C29.8942 59.7188 30.1875 59.4247 30.1875 59.0625C30.1875 58.7002 29.8942 58.4062 29.5312 58.4062Z" fill="#1E2C33"/>
<path d="M28.306 57.0938H26.9062C27.2908 57.0938 27.6058 57.3648 27.6058 57.75C27.6058 58.1352 27.2908 58.4062 26.9062 58.4062H28.306C28.6919 58.4062 29.0063 58.1352 29.0063 57.75C29.0063 57.3648 28.6919 57.0938 28.306 57.0938Z" fill="#B34D43"/>
<path d="M24.1052 36.75H22.7061C23.0919 36.75 23.4063 37.021 23.4063 37.4062C23.4063 37.7915 23.0919 38.0625 22.7061 38.0625H24.1071C24.4917 38.0625 24.8061 37.7915 24.8061 37.4062C24.8061 37.021 24.4897 36.75 24.1052 36.75Z" fill="#B34D43"/>
<path d="M7.74121 66.2812C15.3504 76.9972 27.85 84 41.9909 84C42.0034 84 42.0139 84 42.0257 84C56.1607 84 68.653 76.9926 76.259 66.2812H7.74121Z" fill="#99602E"/>
<path d="M9.7559 68.9062H74.2443C74.9511 68.0603 75.6205 67.1823 76.259 66.2812H7.74121C8.38105 67.1823 9.04912 68.0603 9.7559 68.9062Z" fill="#8C582A"/>
<path d="M74.8125 66.2812V61.0312C74.8125 60.3094 74.2219 59.7188 73.5 59.7188H10.5C9.77812 59.7188 9.1875 60.3094 9.1875 61.0312V66.2812H74.8125Z" fill="#242424"/>
<path d="M73.5 59.7188H70.875C71.5969 59.7188 72.1875 60.3094 72.1875 61.0312V66.2812H74.8125V61.0312C74.8125 60.3094 74.2219 59.7188 73.5 59.7188Z" fill="#1A1A1A"/>
<path d="M60.0881 29.5312C58.7822 29.5312 57.4769 29.5312 57.4769 29.5312C57.4769 29.5312 56.171 29.5312 54.8657 29.5312C54.8657 33.4688 54.8657 44.625 49.6426 53.8125C53.5597 53.8125 57.4769 53.8125 57.4769 53.8125C57.4769 53.8125 61.394 53.8125 65.3112 53.8125C60.0881 44.625 60.0881 33.4688 60.0881 29.5312Z" fill="#E6E6E6"/>
<path d="M60.0882 29.5312C59.4575 29.5312 58.8295 29.5312 58.3472 29.5312C58.3472 33.4688 58.3472 44.625 63.5703 53.8125C64.1425 53.8125 64.7266 53.8125 65.3113 53.8125C60.0882 44.625 60.0882 33.4688 60.0882 29.5312Z" fill="#CCCCCC"/>
<path d="M66.9375 54.9101C66.9375 55.3911 66.5477 55.7809 66.0673 55.7809H49.4327C48.9523 55.7809 48.5625 55.3911 48.5625 54.9101V54.6824C48.5625 54.2013 48.9523 53.8115 49.4327 53.8115H66.0673C66.5477 53.8115 66.9375 54.2013 66.9375 54.6824V54.9101Z" fill="#263740"/>
<path d="M66.0674 53.8125H64.7549C65.2353 53.8125 65.6251 54.2023 65.6251 54.6833V54.9111C65.6251 55.3921 65.2353 55.7819 64.7549 55.7819H66.0674C66.5478 55.7819 66.9376 55.3921 66.9376 54.9111V54.6833C66.9376 54.2023 66.5478 53.8125 66.0674 53.8125Z" fill="#1E2C33"/>
<path d="M66.9375 56.8788C66.9375 57.3599 66.5477 57.7497 66.0673 57.7497H49.4327C48.9523 57.7497 48.5625 57.3599 48.5625 56.8788V56.6511C48.5625 56.1701 48.9523 55.7803 49.4327 55.7803H66.0673C66.5477 55.7803 66.9375 56.1701 66.9375 56.6511V56.8788Z" fill="#CC584C"/>
<path d="M68.25 58.8476C68.25 59.3286 67.8602 59.7184 67.3798 59.7184H47.4639C46.9836 59.7184 46.5938 59.3286 46.5938 58.8476V58.6199C46.5938 58.1388 46.9836 57.749 47.4639 57.749H67.3798C67.8602 57.749 68.25 58.1388 68.25 58.6199V58.8476Z" fill="#263740"/>
<path d="M61.8277 34.125H53.1226L53.9927 30.1875H60.9582L61.8277 34.125Z" fill="#E6E6E6"/>
<path d="M67.3799 57.75H66.0674C66.5478 57.75 66.9376 58.1398 66.9376 58.6208V58.8486C66.9376 59.3296 66.5478 59.7194 66.0674 59.7194H67.3799C67.8603 59.7194 68.2501 59.3296 68.2501 58.8486V58.6208C68.2501 58.1398 67.8603 57.75 67.3799 57.75Z" fill="#1E2C33"/>
<path d="M66.0674 55.7812H64.7549C65.2353 55.7812 65.6251 56.1711 65.6251 56.6521V56.8798C65.6251 57.3608 65.2353 57.7507 64.7549 57.7507H66.0674C66.5478 57.7507 66.9376 57.3608 66.9376 56.8798V56.6521C66.9376 56.1711 66.5478 55.7812 66.0674 55.7812Z" fill="#BF5347"/>
<path d="M60.9582 30.1875H59.2158L60.088 34.125H61.8277L60.9582 30.1875Z" fill="#CCCCCC"/>
<path d="M63.5691 27.7234C63.5691 31.0906 60.8437 31.2055 57.4758 31.2055C54.1086 31.2055 51.3818 31.0906 51.3818 27.7234C51.3818 24.3562 53.5573 21.1944 57.4758 19.0176C61.3929 21.1944 63.5691 24.3562 63.5691 27.7234Z" fill="#263740"/>
<path d="M57.4758 19.0176C57.174 19.1856 56.8865 19.3608 56.605 19.54C59.9709 21.6846 61.8281 24.6154 61.8281 27.7234C61.8281 30.794 59.5594 31.1589 56.605 31.1995C56.8904 31.2035 57.1792 31.2055 57.4758 31.2055C60.8437 31.2055 63.5691 31.0906 63.5691 27.7234C63.5691 24.3562 61.393 21.1944 57.4758 19.0176Z" fill="#1E2C33"/>
<path d="M57.4744 19.8883C58.436 19.8883 59.2155 19.1088 59.2155 18.1473C59.2155 17.1857 58.436 16.4062 57.4744 16.4062C56.5129 16.4062 55.7334 17.1857 55.7334 18.1473C55.7334 19.1088 56.5129 19.8883 57.4744 19.8883Z" fill="#CC584C"/>
<path d="M57.4757 16.4062C57.4015 16.4062 57.3293 16.4194 57.2578 16.4279C58.1168 16.5362 58.7803 17.2607 58.7803 18.1473C58.7803 19.0339 58.1149 19.7584 57.2578 19.8667C57.3293 19.8758 57.4015 19.8883 57.4757 19.8883C58.4378 19.8883 59.2161 19.1087 59.2161 18.1473C59.2161 17.1859 58.4378 16.4062 57.4757 16.4062Z" fill="#BF5347"/>
<path d="M61.6875 35.6521C61.6875 35.1711 61.2977 34.7812 60.8173 34.7812H54.0264C53.5461 34.7812 53.1562 35.1711 53.1562 35.6521V35.8798C53.1562 36.3608 53.5461 36.7507 54.0264 36.7507H60.8173C61.2977 36.7507 61.6875 36.3608 61.6875 35.8798V35.6521Z" fill="#CC584C"/>
<path d="M60.8174 34.7812H59.5049C59.9853 34.7812 60.3751 35.1711 60.3751 35.6521V35.8798C60.3751 36.3608 59.9853 36.7507 59.5049 36.7507H60.8174C61.2978 36.7507 61.6876 36.3608 61.6876 35.8798V35.6521C61.6876 35.1711 61.2978 34.7812 60.8174 34.7812Z" fill="#BF5347"/>
<path d="M62.3438 33.6833C62.3438 33.2023 61.9539 32.8125 61.4729 32.8125H53.3708C52.8898 32.8125 52.5 33.2023 52.5 33.6833V33.9111C52.5 34.3921 52.8898 34.7819 53.3708 34.7819H61.4729C61.9539 34.7819 62.3438 34.3921 62.3438 33.9111V33.6833Z" fill="#263740"/>
<path d="M61.4731 32.8125H60.1606C60.6417 32.8125 61.0315 33.2023 61.0315 33.6833V33.9111C61.0315 34.3921 60.6417 34.7819 60.1606 34.7819H61.4731C61.9542 34.7819 62.344 34.3921 62.344 33.9111V33.6833C62.344 33.2023 61.9542 32.8125 61.4731 32.8125Z" fill="#1E2C33"/>
</svg>
