<svg width="60" height="92" viewBox="0 0 60 92" fill="none" xmlns="http://www.w3.org/2000/svg">
<path style="mix-blend-mode:multiply" opacity="0.56" d="M4.92827 84.2908C2.81565 84.6756 0.217862 85.5736 0.0151982 87.7929C-0.267303 90.6407 3.44821 91.7503 6.18724 91.7888C19.9397 92.0069 33.6902 92.0561 47.4386 91.9363C50.0487 91.9363 52.7509 91.8658 55.1276 90.7369C69.9896 83.6686 46.6157 77.7035 41.2113 78.0114C29.1497 78.6656 16.8179 82.1485 4.92827 84.2908Z" fill="url(#paint0_linear_342_2)"/>
<path d="M36.6722 30.7778C36.1969 33.2268 39.1411 34.6717 41.3384 35.8778C43.2975 36.9634 44.9797 38.4799 46.2561 40.3107C47.5325 42.1415 48.3691 44.2381 48.7016 46.4394C49.0341 48.6408 48.8538 50.8885 48.1745 53.01C47.4951 55.1315 46.3348 57.0704 44.7826 58.6779L45.3998 65.278C47.9921 65.4127 48.918 68.7923 48.6156 71.3515C48.3131 73.9107 47.6095 76.8617 49.3254 78.7781C51.4054 78.2883 52.3128 81.2883 52.2263 83.4067C52.2671 84.0972 52.0926 84.7834 51.7264 85.372C51.3005 85.9169 50.1031 86.2781 49.6957 85.721H9.31038C9.6622 83.272 10.0572 80.7863 10.4091 78.3128C11.3765 77.9277 12.4425 77.8591 13.452 78.1168C13.125 73.85 13.477 69.5587 14.4951 65.4004C15.258 65.3343 16.0233 65.4964 16.6924 65.8657C18.3774 62.5532 19.5866 59.023 20.2847 55.3779C18.433 56.6024 15.7543 55.5249 14.6124 53.6453C13.4705 51.7657 13.5507 49.3962 13.9952 47.2473C14.4396 45.0983 15.1926 42.9982 15.3222 40.8125C15.7481 33.5819 9.37211 27.4471 9.01411 20.2042C8.71784 13.9654 13.1249 8.26536 18.575 5.14289C24.0251 2.02042 30.3949 0.985721 36.6043 0C36.6783 0 35.8636 7.90413 35.7957 8.57149C42.363 9.9919 53.3497 19.1144 53.9608 26.4553C54.9175 37.8737 38.0794 23.5593 36.6722 30.7778Z" fill="#4A4A4B"/>
<defs>
<linearGradient id="paint0_linear_342_2" x1="-0.0216498" y1="85.0027" x2="59.9854" y2="85.0027" gradientUnits="userSpaceOnUse">
<stop/>
<stop offset="1"/>
</linearGradient>
</defs>
</svg>
