<svg width="60" height="99" viewBox="0 0 60 99" fill="none" xmlns="http://www.w3.org/2000/svg">
<path style="mix-blend-mode:multiply" opacity="0.56" d="M8.106 93.1691C9.78116 93.754 11.1638 94.9417 12.6794 95.828C17.9974 99.0897 24.7334 99.0543 30.9377 98.1945C41.1571 96.7903 51.0182 93.4642 60.0003 88.3918C59.1849 85.6708 56.455 83.907 53.7074 83.26C50.9598 82.6129 48.0615 82.8257 45.2253 82.737C34.1462 82.3736 22.5088 76.9936 11.412 80.0249C8.39849 80.8492 1.44084 83.5702 0.386118 86.6546C-1.58152 92.3891 4.42776 91.8928 8.106 93.1691Z" fill="url(#paint0_linear_343_5)"/>
<path d="M20.3898 23.3118C14.0708 19.0304 13.1808 9.12898 18.6098 3.74836C24.0388 -1.63226 34.2115 -1.11813 39.1421 4.63479C44.0727 10.3877 42.7644 19.9966 36.5433 24.411C36.9738 24.4049 37.4012 24.4854 37.7998 24.6475C38.1985 24.8096 38.5602 25.0501 38.8634 25.3546C39.1666 25.6591 39.4051 26.0213 39.5646 26.4197C39.7242 26.818 39.8014 27.2443 39.7918 27.673C39.722 28.0974 39.5679 28.5037 39.3387 28.868C39.1094 29.2324 38.8095 29.5476 38.4565 29.7952C38.1035 30.0428 37.7044 30.2178 37.2827 30.3101C36.861 30.4023 36.4251 30.4099 36.0004 30.3323C37.328 42.8664 39.4655 55.3022 42.3995 67.5623C42.978 69.9822 43.6366 72.4908 45.292 74.3878C47.1966 76.5773 50.1158 77.6499 52.4565 79.3961C54.3166 80.7878 55.8563 83.3762 54.459 85.1933C45.6569 84.2271 36.9438 86 28.0438 86H4.5656C4.13205 84.6098 3.94532 83.1549 4.0138 81.7008C3.99244 80.9855 4.16049 80.2771 4.50106 79.647C4.84163 79.0168 5.34273 78.487 5.954 78.1108C6.844 77.6498 7.9654 77.5789 8.624 76.8432C9.4072 75.9568 9.1402 74.4144 10.1014 73.6875C11.0626 72.9606 12.1484 73.457 13.1897 73.2354C14.9697 72.872 15.7351 70.9485 16.2157 69.2908C17.7614 63.9425 18.9741 58.5043 19.8469 53.0072C20.9861 45.8182 21.7515 38.1506 21.1018 30.9085C21.0484 30.3412 20.8971 29.6498 20.3364 29.4636C20.0049 29.3932 19.6622 29.3932 19.3307 29.4636C18.9169 29.4895 18.5025 29.4248 18.1165 29.2741C17.7305 29.1234 17.3823 28.8903 17.0964 28.5912C16.8106 28.2921 16.5939 27.9343 16.4618 27.5429C16.3296 27.1515 16.2851 26.736 16.3314 26.3257C16.5895 24.739 18.7255 22.9307 20.3898 23.3118Z" fill="#4A4A4B"/>
<defs>
<linearGradient id="paint0_linear_343_5" x1="-0.00386477" y1="88.9058" x2="60.0003" y2="88.9058" gradientUnits="userSpaceOnUse">
<stop/>
<stop offset="1"/>
</linearGradient>
</defs>
</svg>
