<svg width="60" height="91" viewBox="0 0 60 91" fill="none" xmlns="http://www.w3.org/2000/svg">
<path style="mix-blend-mode:multiply" opacity="0.56" d="M1.1439 76.6877C3.30094 78.8318 7.93145 80.7047 9.6235 82.429C10.8312 83.6561 11.8903 85.0123 13.1561 86.1877C17.1473 89.8495 22.8822 91.1024 28.2812 90.7084C33.6802 90.3145 38.8662 88.5449 43.9746 86.756C45.5972 86.2819 47.1263 85.5326 48.4953 84.5409C49.7869 83.4688 50.7621 81.7897 50.4974 80.117C50.1292 77.411 46.9001 76.1194 44.2135 75.4284C35.1953 73.0239 26.0066 71.3118 16.7275 70.307C12.4974 69.8937 6.80127 69.0606 2.93282 71.1983C-0.722512 73.2326 -0.515849 75.0409 1.1439 76.6877Z" fill="url(#paint0_linear_342_3)"/>
<path d="M19.6736 0C19.3466 4.21699 18.8006 8.41313 18.038 12.5706C18.3316 12.8456 18.697 13.027 19.0895 13.0925C19.4821 13.158 19.8847 13.1049 20.2483 12.9395C19.8434 15.8787 19.6681 18.8463 19.7241 21.814C20.5135 21.1085 21.846 21.6069 22.3891 22.5261C22.8311 23.5062 22.9847 24.5972 22.8312 25.6655C22.4001 35.3435 21.4174 44.9875 19.8883 54.548C19.8522 54.9853 19.7135 55.4073 19.4841 55.7779C18.1832 57.5385 15.0636 54.5286 13.4027 55.9073L12.5123 65.6168C12.5224 65.8493 12.4855 66.0814 12.404 66.2986C12.3225 66.5159 12.1981 66.7134 12.0386 66.8791C11.713 67.0621 11.349 67.162 10.9777 67.1704C7.97169 67.6688 7.69383 71.9668 8.20535 75.048C8.83686 75.3781 9.5631 75.5399 10.2009 75.8701L50.1125 82C50.1756 79.6115 50.283 77.2294 50.3524 74.8409L47.378 74.5625L48.4579 59.4157C47.822 59.1669 47.1418 59.0597 46.4624 59.1009C45.783 59.1422 45.12 59.3312 44.5173 59.6552C44.3649 48.1523 45.3125 36.6618 47.3464 25.3483C48.9737 25.7101 50.6445 25.8214 52.3038 25.6784C52.6638 23.4776 53.0237 21.2832 53.3774 19.0824C54.6348 19.4186 55.9512 19.4519 57.2233 19.1795C57.0338 17.9755 60.3808 4.51168 59.964 4.43401C57.9397 4.03923 55.8905 3.79263 53.8321 3.69608C53.5921 5.39201 53.3521 7.09441 53.1185 8.79034C52.6511 12.0916 46.6581 8.85507 46.4307 10.2985L47.397 4.07799L40.8924 3.02937C40.7661 5.30786 40.6187 7.58205 40.4503 9.85191C39.0945 9.63489 37.714 9.63489 36.3581 9.85191C36.922 7.46925 37.1768 5.02075 37.1159 2.56978L32.3796 1.38522C32.1691 3.51268 31.9586 5.6423 31.7481 7.77408L26.2982 6.7125C26.7224 4.72182 26.8902 2.6827 26.797 0.6473C24.17 0.420745 22.2375 0.686138 19.6736 0Z" fill="#4A4A4B"/>
<defs>
<linearGradient id="paint0_linear_342_3" x1="2596.79" y1="3688.55" x2="6554.66" y2="3688.55" gradientUnits="userSpaceOnUse">
<stop/>
<stop offset="1"/>
</linearGradient>
</defs>
</svg>
