<svg width="60" height="103" viewBox="0 0 60 103" fill="none" xmlns="http://www.w3.org/2000/svg">
<path style="mix-blend-mode:multiply" opacity="0.56" d="M33.8146 82.9216C25.4104 82.0494 16.9171 82.7672 8.77854 85.0373C6.37431 85.7105 3.90597 86.568 2.1028 88.3151C0.299633 90.0622 -0.64603 92.9072 0.499985 95.1431C1.79025 97.6916 5.02794 98.4289 7.85692 98.8456C22.1918 100.938 36.6477 102.095 51.133 102.308C53.954 102.308 57.1836 102.171 58.9627 99.9756C60.7419 97.7797 60.0927 94.0612 58.0732 91.8894C56.0536 89.7176 53.1125 88.6837 50.2594 87.9384C44.106 86.2882 37.7651 85.4397 31.3943 85.414L33.8146 82.9216Z" fill="url(#paint0_linear_342_4)"/>
<path d="M29.7088 25.2516C28.9944 27.0626 27.4359 28.5306 27.1112 30.4453C26.7865 32.36 29.0756 34.6337 30.5286 33.3253C30.0166 47.8457 26.9346 62.1675 21.4209 75.6483C20.2033 78.632 18.7665 81.6956 16.1851 83.6262C14.5048 84.9107 12.3943 85.6765 11.0387 87.2881C9.68305 88.8996 9.48011 91.66 11.4851 92.3621L51.3905 96C52.6243 93.7662 51.7963 90.8861 50.5787 88.6443C49.3611 86.4025 47.5753 84.5038 46.1953 82.3497C43.1107 77.5071 42.2989 71.6274 41.7307 65.9311C40.6663 55.2314 40.2056 44.482 40.3508 33.7322C40.7914 34.0482 41.3027 34.2557 41.8419 34.3373C42.381 34.4188 42.9322 34.3721 43.4491 34.2009C43.966 34.0297 44.4336 33.7391 44.8126 33.3536C45.1916 32.968 45.4709 32.4987 45.6271 31.985C46.0492 30.0464 44.6124 28.1237 44.8153 26.1531C45.002 24.4538 46.3577 23.1295 47.1451 21.6057C48.6874 18.622 47.9568 14.9601 46.4551 11.9604C46.3288 11.6638 46.1471 11.3932 45.9193 11.1626C44.7017 10.1175 43.062 11.8567 42.4207 13.3086C42.5298 12.9295 42.5498 12.531 42.4793 12.1431C42.4088 11.7553 42.2495 11.3883 42.0135 11.0698C41.7775 10.7513 41.471 10.4896 41.117 10.3046C40.7631 10.1196 40.371 10.016 39.9704 10.0017C39.5698 9.98741 39.1711 10.0627 38.8044 10.222C38.4378 10.3813 38.1127 10.6204 37.8538 10.9212C37.5949 11.2221 37.409 11.5768 37.31 11.9585C37.211 12.3403 37.2015 12.7393 37.2824 13.1252C37.3452 12.7651 37.3201 12.3954 37.2091 12.0468C37.0981 11.6981 36.9043 11.3803 36.6438 11.1197C36.3834 10.859 36.0636 10.6629 35.7108 10.5476C35.3581 10.4322 34.9825 10.4009 34.6151 10.4562C34.2476 10.5115 33.8988 10.6519 33.5974 10.8657C33.2959 11.0795 33.0505 11.3606 32.8813 11.686C32.7121 12.0113 32.624 12.3715 32.6243 12.7368C32.6245 13.1022 32.7131 13.4622 32.8827 13.7873C32.1642 12.9661 31.233 12.3513 30.1877 12.0082C29.1 11.753 27.7525 12.3114 27.5577 13.3964C27.3628 14.4814 28.3694 15.4467 28.3694 16.5876C28.3694 18.5502 27.1518 18.981 27.6875 20.8398C28.1827 22.3796 30.8209 22.3796 29.7088 25.2516Z" fill="#4A4A4B"/>
<path d="M39.2591 0.739656C39.2591 1.04938 39.8183 0.885916 39.7772 0.584793C39.7361 0.283671 39.4154 0.120204 39.1193 0.0599792C38.383 -0.0801045 37.6232 0.0266413 36.9483 0.364986C36.2734 0.703331 35.7178 1.256 35.3609 1.94415C35.0286 2.65044 34.922 3.44971 35.0568 4.22418C35.1915 4.99866 35.5605 5.70737 36.1093 6.2459C37.4992 7.54503 40.1062 7.10625 40.8217 5.38555C41.0285 4.76673 41.0561 4.09781 40.901 3.46265C40.7459 2.82749 40.4151 2.25435 39.9499 1.81509C38.9971 0.938623 37.7643 0.468784 36.4958 0.498759L39.2591 0.739656Z" fill="#4A4A4B"/>
<defs>
<linearGradient id="paint0_linear_342_4" x1="4212.59" y1="3869" x2="8708.98" y2="3869" gradientUnits="userSpaceOnUse">
<stop/>
<stop offset="1"/>
</linearGradient>
</defs>
</svg>
