<svg width="64" height="57" viewBox="0 0 64 57" fill="none" xmlns="http://www.w3.org/2000/svg">
<path d="M49.2956 55.2946C49.2956 56.2457 48.5506 57 47.6113 57H16.1296C15.1903 57 14.4453 56.2457 14.4453 55.2946V51.6214C14.4453 50.6703 15.1903 49.916 16.1296 49.916H47.6113C48.5506 49.916 49.2956 50.7031 49.2956 51.6214V55.2946ZM20.1134 6.75604C21.9595 6.75604 23.4494 5.24741 23.4494 3.37802C23.4494 1.50863 21.9595 0 20.1134 0C18.2672 0 16.7773 1.50863 16.7773 3.37802C16.7773 5.24741 18.2672 6.75604 20.1134 6.75604ZM43.8866 6.75604C45.7328 6.75604 47.2227 5.24741 47.2227 3.37802C47.2227 1.50863 45.7328 0 43.8866 0C42.0405 0 40.5506 1.50863 40.5506 3.37802C40.5506 5.24741 42.0405 6.75604 43.8866 6.75604ZM60.6316 4.32911C58.7854 4.32911 57.2632 5.87054 57.2632 7.73993C57.2632 9.60932 58.7854 11.1507 60.6316 11.1507C62.4777 11.1507 64 9.60932 64 7.73993C64 5.87054 62.5101 4.32911 60.6316 4.32911ZM6.67207 7.51036C6.67207 5.64096 5.18219 4.13234 3.33603 4.13234C1.48988 4.13234 0 5.64096 0 7.51036C0 9.37975 1.48988 10.8884 3.33603 10.8884C5.18219 10.8884 6.67207 9.37975 6.67207 7.51036ZM58.8502 12.1674C58.0729 11.7739 57.1336 12.0035 56.6478 12.7578L44.7935 30.7629L44.6964 9.90449C44.6964 9.11738 44.1457 8.42866 43.3684 8.23188C42.5911 8.0679 41.8138 8.42865 41.4575 9.15017L31.8704 28.7296L22.2834 9.15017C21.9271 8.42865 21.1498 8.0679 20.3725 8.23188C19.5951 8.39586 19.0445 9.11738 19.0445 9.90449L18.9474 30.7629L7.09312 12.7578C6.60729 12.0362 5.66802 11.7739 4.89069 12.1674C4.11336 12.561 3.75709 13.4793 4.08097 14.2992L15.2874 44.6686C15.5466 45.3573 16.1619 45.7837 16.8745 45.7837H46.7692C47.4818 45.7837 48.0972 45.3245 48.3563 44.6686L59.5627 14.2992C59.9514 13.4793 59.5951 12.561 58.8502 12.1674Z" fill="currentColor"/>
</svg>
