<svg width="44" height="44" viewBox="0 0 44 44" fill="none" xmlns="http://www.w3.org/2000/svg">
<path fill-rule="evenodd" clip-rule="evenodd" d="M29.5772 32.4054C29.9677 32.796 30.6009 32.796 30.9914 32.4054L32.4056 30.9912C32.7961 30.6007 32.7961 29.9675 32.4056 29.577L24.6274 21.7988L32.4056 14.0207C32.7961 13.6301 32.7961 12.997 32.4056 12.6064L30.9914 11.1922C30.6009 10.8017 29.9677 10.8017 29.5772 11.1922L21.799 18.9704L14.0208 11.1922C13.6303 10.8017 12.9971 10.8017 12.6066 11.1922L11.1924 12.6064C10.8019 12.997 10.8019 13.6301 11.1924 14.0207L18.9706 21.7988L11.1924 29.577C10.8019 29.9675 10.8019 30.6007 11.1924 30.9912L12.6066 32.4054C12.9971 32.796 13.6303 32.796 14.0208 32.4054L21.799 24.6273L29.5772 32.4054Z" fill="white"/>
</svg>
