<svg width="52" height="52" viewBox="0 0 52 52" fill="none" xmlns="http://www.w3.org/2000/svg">
<g clip-path="url(#clip0_170_1435)">
<path d="M15.4687 11H35.5313C37.9992 11 40 13.0697 40 15.6228V36.3772C40 38.9302 37.9992 41 35.5313 41H15.4687C13.0007 41 11 38.9302 11 36.3772V15.6228C11 13.0697 13.0007 11 15.4687 11Z" fill="currentColor"/>
<path d="M25.2568 32.0006H26.4431C26.4431 32.0006 26.8013 31.9598 26.9845 31.7559C27.1528 31.5685 27.1475 31.2169 27.1475 31.2169C27.1475 31.2169 27.1242 29.5702 27.8629 29.3277C28.5913 29.0888 29.5265 30.9191 30.5176 31.623C31.2671 32.1555 31.8367 32.039 31.8367 32.039L34.4872 32.0006C34.4872 32.0006 35.8736 31.9121 35.2162 30.7845C35.1623 30.6924 34.8331 29.9503 33.2454 28.4257C31.5834 26.83 31.8062 27.0882 33.8081 24.3279C35.0272 22.647 35.5146 21.6208 35.3623 21.1813C35.2172 20.7626 34.3204 20.8732 34.3204 20.8732L31.3363 20.8923C31.3363 20.8923 31.1149 20.8611 30.9509 20.9626C30.7905 21.0619 30.6876 21.2938 30.6876 21.2938C30.6876 21.2938 30.2151 22.5945 29.5854 23.7009C28.2566 26.035 27.7252 26.1586 27.508 26.0134C27.0026 25.6756 27.1289 24.6565 27.1289 23.9323C27.1289 21.6701 27.4606 20.727 26.483 20.4828C26.1586 20.4018 25.9197 20.3483 25.0901 20.3395C24.0252 20.3283 23.1242 20.3429 22.6139 20.6015C22.2744 20.7735 22.0124 21.1567 22.172 21.1788C22.3693 21.2059 22.8159 21.3034 23.0527 21.6367C23.3586 22.0672 23.3479 23.0337 23.3479 23.0337C23.3479 23.0337 23.5236 25.6966 22.9375 26.0273C22.5353 26.2542 21.9835 25.791 20.7987 23.6733C20.1918 22.5886 19.7334 21.3894 19.7334 21.3894C19.7334 21.3894 19.6452 21.1653 19.4875 21.0454C19.2963 20.9001 19.0291 20.854 19.0291 20.854L16.1933 20.8732C16.1933 20.8732 15.7676 20.8855 15.6112 21.077C15.4721 21.2474 15.6001 21.5996 15.6001 21.5996C15.6001 21.5996 17.8201 26.9728 20.3341 29.6806C22.6395 32.1636 25.2568 32.0006 25.2568 32.0006Z" fill="#286168"/>
</g>
<defs>
<clipPath id="clip0_170_1435">
<rect width="29" height="30" fill="white" transform="translate(11 11)"/>
</clipPath>
</defs>
</svg>
