<svg width="52" height="52" viewBox="0 0 52 52" fill="none" xmlns="http://www.w3.org/2000/svg">
<g clip-path="url(#clip0_170_1432)">
<path d="M34.0689 17.3934C31.8466 15.1184 28.8871 13.8672 25.7419 13.8672C19.2501 13.8672 13.9675 19.2622 13.9675 25.8922C13.9675 28.0101 14.5085 30.0793 15.5374 31.9047L13.8667 38.1339L20.1093 36.4601C21.8277 37.4189 23.7636 37.9226 25.7366 37.9226H25.7419C32.2285 37.9226 37.6278 32.5276 37.6278 25.8976C37.6278 22.6855 36.2912 19.6684 34.0689 17.3934ZM25.7419 35.8968C23.9811 35.8968 22.2573 35.4147 20.7564 34.5047L20.401 34.288L16.6989 35.2793L17.6854 31.5905L17.4521 31.2114C16.4709 29.6189 15.9564 27.7826 15.9564 25.8922C15.9564 20.3834 20.348 15.8984 25.7473 15.8984C28.362 15.8984 30.8177 16.9384 32.6634 18.8289C34.5092 20.7193 35.6442 23.2272 35.6389 25.8976C35.6389 31.4118 31.1359 35.8968 25.7419 35.8968ZM31.1094 28.4109C30.8177 28.2593 29.3698 27.5334 29.0993 27.4359C28.8288 27.333 28.6325 27.2843 28.4363 27.5876C28.24 27.8909 27.6778 28.5626 27.5028 28.7684C27.3331 28.9689 27.1581 28.9959 26.8664 28.8443C25.1373 27.9614 24.0023 27.268 22.862 25.2693C22.5597 24.7384 23.1643 24.7764 23.7265 23.628C23.822 23.4276 23.7742 23.2543 23.7 23.1026C23.6257 22.9509 23.037 21.4722 22.793 20.8709C22.5544 20.2859 22.3104 20.3672 22.13 20.3564C21.9603 20.3455 21.7641 20.3455 21.5678 20.3455C21.3716 20.3455 21.0534 20.4214 20.7829 20.7193C20.5124 21.0226 19.7539 21.7484 19.7539 23.2272C19.7539 24.7059 20.8094 26.1359 20.9526 26.3364C21.1011 26.5368 23.0264 29.5701 25.9806 30.8755C27.8476 31.6989 28.5795 31.7693 29.513 31.6284C30.0805 31.5418 31.2526 30.9026 31.4966 30.1984C31.7406 29.4943 31.7406 28.893 31.6663 28.7684C31.5974 28.633 31.4011 28.5572 31.1094 28.4109Z" fill="currentColor"/>
</g>
<defs>
<clipPath id="clip0_170_1432">
<rect width="24.2667" height="24.2667" fill="white" transform="translate(13.8667 13.8672)"/>
</clipPath>
</defs>
</svg>
