<svg width="52" height="52" viewBox="0 0 52 52" fill="none" xmlns="http://www.w3.org/2000/svg">
<path d="M39.4149 32.8707C39.0929 34.1024 38.1441 35.0726 36.9394 35.4018C34.7558 36 26 36 26 36C26 36 17.2442 36 15.0606 35.4018C13.8559 35.0725 12.9071 34.1024 12.5851 32.8707C12 30.638 12 25.9798 12 25.9798C12 25.9798 12 21.3216 12.5851 19.0889C12.9071 17.8571 13.8559 16.9274 15.0606 16.5982C17.2442 16 26 16 26 16C26 16 34.7558 16 36.9394 16.5982C38.1441 16.9274 39.0929 17.8571 39.4149 19.0889C40 21.3216 40 25.9798 40 25.9798C40 25.9798 40 30.638 39.4149 32.8707ZM23.1363 21.7505V30.2091L30.4545 25.9797L23.1363 21.7505Z" fill="currentColor"/>
</svg>
